<?xml version="1.0" encoding="iso-8859-1"?>
<!-- Generator: Adobe Illustrator 19.0.0, SVG Export Plug-In . SVG Version: 6.00 Build 0)  -->
<svg version="1.1" id="Capa_1" xmlns="http://www.w3.org/2000/svg" xmlns:xlink="http://www.w3.org/1999/xlink" x="0px" y="0px"
	 viewBox="0 0 512.001 512.001" style="enable-background:new 0 0 512.001 512.001;" xml:space="preserve">
<g>
	<path style="fill:#F2ECBF;" d="M239.866,35.884c-102.973,7.318-188.478,87.278-202.46,189.563
		c-4.873,35.672-0.609,70.78,9.878,101.932l200.73-83.977c13.074-5.226,25.856,7.821,20.71,20.683l-82.785,201.181
		c31.135,10.487,64.918,14.204,100.581,9.34c102.276-13.965,182.246-99.443,189.599-202.408
		C485.723,137.577,374.487,26.315,239.866,35.884z"/>
	<path style="fill:#F2ECBF;" d="M148.077,479.311l81.443-196.829l-200.536,82.98C55.017,415.302,96.939,455.494,148.077,479.311z"/>
</g>
<path style="fill:#DD352E;" d="M215.017,118.889c0-10.443,1.774-20.268,4.873-28.963c-1.598-0.203-3.222-0.335-4.873-0.335
	c-21.575,0-39.062,17.487-39.062,39.062s17.487,39.071,39.062,39.071c4.899,0,9.578-0.945,13.903-2.595
	C220.384,153.555,215.017,137.145,215.017,118.889z"/>
<path style="fill:#BF5A45;" d="M322.272,385.597c0,10.443-1.774,20.268-4.873,28.963c1.598,0.203,3.222,0.335,4.873,0.335
	c21.575,0,39.062-17.487,39.062-39.062s-17.487-39.062-39.062-39.062c-4.899,0-9.578,0.945-13.903,2.595
	C316.905,350.94,322.272,367.351,322.272,385.597z"/>
<path style="fill:#6B1E31;" d="M381.805,233.454c-10.443-0.256-20.224-2.278-28.831-5.579c-0.238,1.598-0.415,3.213-0.459,4.864
	c-0.53,21.566,16.525,39.486,38.091,40.007c21.566,0.53,39.486-16.525,40.007-38.091c0.124-4.899-0.706-9.596-2.251-13.956
	C416.586,228.943,400.052,233.904,381.805,233.454z"/>
<path style="fill:#DC691D;" d="M116.969,203.749c-10.443-0.256-20.224-2.278-28.831-5.579c-0.238,1.598-0.415,3.213-0.459,4.864
	c-0.53,21.566,16.525,39.486,38.091,40.007c21.566,0.53,39.486-16.525,40.007-38.091c0.124-4.899-0.706-9.596-2.251-13.956
	C151.749,199.238,135.215,204.199,116.969,203.749z"/>
<path style="fill:#ED8A19;" d="M320.012,128.423c-10.443-0.256-20.224-2.278-28.831-5.579c-0.238,1.598-0.415,3.213-0.459,4.864
	c-0.53,21.566,16.525,39.486,38.091,40.007c21.566,0.53,39.486-16.525,40.007-38.091c0.124-4.899-0.706-9.596-2.251-13.956
	C354.793,123.912,338.259,128.865,320.012,128.423z"/>
<path style="fill:#BF5A45;" d="M184.782,322.868c0-7.186-2.074-13.824-5.464-19.615l-34.878,14.433
	c0.803,4.793,1.28,9.79,1.28,14.945c0,10.443-1.774,20.268-4.873,28.963c1.598,0.203,3.222,0.335,4.873,0.335
	C167.295,361.931,184.782,344.443,184.782,322.868z"/>
<path style="fill:#DD352E;" d="M65.336,393.251c-7.565-0.185-15.042-1.359-21.716-3.222c10.284,15.236,22.272,29.466,35.513,42.134
	c19.253-1.995,34.534-17.849,35.019-37.711c0.124-4.899-0.706-9.596-2.251-13.965C100.117,388.74,83.583,393.692,65.336,393.251z"/>
<g>
	<path style="fill:#61B872;" d="M300.141,308.965c-2.26,0-4.52-0.865-6.241-2.586c-3.452-3.452-3.452-9.031,0-12.482l17.655-17.655
		c3.443-3.452,9.039-3.452,12.482,0c3.452,3.452,3.452,9.031,0,12.482l-17.655,17.655
		C304.661,308.1,302.401,308.965,300.141,308.965z"/>
	<path style="fill:#61B872;" d="M256.003,423.724c-2.26,0-4.52-0.865-6.241-2.586c-3.452-3.452-3.452-9.031,0-12.482L267.417,391
		c3.443-3.452,9.039-3.452,12.482,0c3.452,3.452,3.452,9.031,0,12.482l-17.655,17.655
		C260.523,422.859,258.263,423.724,256.003,423.724z"/>
	<path style="fill:#61B872;" d="M273.658,220.689c-2.26,0-4.52-0.865-6.241-2.586c-3.452-3.452-3.452-9.031,0-12.482l17.655-17.655
		c3.443-3.452,9.039-3.452,12.482,0c3.452,3.452,3.452,9.031,0,12.482l-17.655,17.655
		C278.178,219.824,275.918,220.689,273.658,220.689z"/>
	<path style="fill:#61B872;" d="M397.245,194.206c-2.26,0-4.52-0.865-6.241-2.586c-3.452-3.452-3.452-9.031,0-12.482l17.655-17.655
		c3.443-3.452,9.039-3.452,12.482,0c3.452,3.452,3.452,9.031,0,12.482l-17.655,17.655
		C401.764,193.341,399.504,194.206,397.245,194.206z"/>
	<path style="fill:#61B872;" d="M256.003,97.103c-2.26,0-4.52-0.865-6.241-2.586c-3.452-3.452-3.452-9.031,0-12.482l17.655-17.655
		c3.443-3.452,9.039-3.452,12.482,0c3.452,3.452,3.452,9.031,0,12.482l-17.655,17.655C260.523,96.238,258.263,97.103,256.003,97.103
		z"/>
	<path style="fill:#61B872;" d="M114.762,158.896c-2.26,0-4.52-0.865-6.241-2.586c-3.452-3.452-3.452-9.031,0-12.482l17.655-17.655
		c3.443-3.452,9.039-3.452,12.482,0c3.452,3.452,3.452,9.031,0,12.482l-17.655,17.655
		C119.281,158.031,117.022,158.896,114.762,158.896z"/>
</g>
<path style="fill:#BE6E41;" d="M28.984,365.462L0.003,377.458c25.176,60.769,73.772,109.365,134.541,134.541l13.524-32.689
	C96.939,455.494,55.017,415.302,28.984,365.462z"/>
<path style="fill:#61B872;" d="M397.245,335.448c-2.26,0-4.52-0.865-6.241-2.586c-3.452-3.452-3.452-9.031,0-12.482l17.655-17.655
	c3.443-3.452,9.039-3.452,12.482,0c3.452,3.452,3.452,9.031,0,12.482l-17.655,17.655
	C401.764,334.583,399.504,335.448,397.245,335.448z"/>
<path style="fill:#BE6E41;" d="M223.959,1.95C109.642,15.827,17.623,106.955,2.342,221.095c-5.685,42.443-0.794,83.121,12.2,119.985
	l32.742-13.7c-10.487-31.153-14.751-66.26-9.878-101.932c13.982-102.286,99.487-182.246,202.46-189.564
	c134.621-9.569,245.848,101.694,236.244,236.314c-7.345,102.965-87.314,188.442-189.599,202.408
	c-35.655,4.864-69.438,1.148-100.582-9.34l-13.471,32.715c36.758,12.685,77.25,17.373,119.49,11.529
	c113.911-15.766,204.606-107.935,218.183-222.129C529.888,121.167,390.244-18.229,223.959,1.95z"/>
<g>
</g>
<g>
</g>
<g>
</g>
<g>
</g>
<g>
</g>
<g>
</g>
<g>
</g>
<g>
</g>
<g>
</g>
<g>
</g>
<g>
</g>
<g>
</g>
<g>
</g>
<g>
</g>
<g>
</g>
</svg>
